<?xml version="1.0" standalone="no"?>
<!DOCTYPE svg PUBLIC "-//W3C//DTD SVG 20010904//EN"
 "http://www.w3.org/TR/2001/REC-SVG-20010904/DTD/svg10.dtd">
<svg version="1.0" xmlns="http://www.w3.org/2000/svg"
 width="1024.000000pt" height="1024.000000pt" viewBox="0 0 1024.000000 1024.000000"
 preserveAspectRatio="xMidYMid meet">

<g transform="translate(0.000000,1024.000000) scale(0.100000,-0.100000)"
fill="#000000" stroke="none">
<path d="M0 5120 l0 -5120 5120 0 5120 0 0 4015 0 4015 -25 12 c-29 13 -32 26
-8 35 14 5 12 8 -7 15 -16 6 -26 5 -32 -4 -5 -9 -8 -6 -8 9 0 17 -7 23 -32 26
l-33 3 32 8 c18 5 33 12 33 17 0 9 -15 12 -70 14 -18 0 -26 7 -28 23 -4 23
-17 29 -27 12 -10 -16 -25 -11 -18 6 5 14 1 15 -26 9 -28 -6 -33 -4 -38 15 -4
14 -12 20 -23 17 -19 -5 -44 28 -34 45 4 6 3 8 -3 5 -14 -9 -53 21 -53 40 0 9
-6 13 -15 9 -8 -3 -15 -1 -15 4 0 6 -10 11 -22 11 -17 1 -19 2 -5 6 22 6 22
25 0 22 -30 -5 -63 11 -63 30 0 13 -10 21 -31 25 -22 4 -29 10 -26 20 3 8 1
17 -6 20 -7 2 -4 5 6 5 27 1 10 21 -18 21 -14 0 -25 7 -27 18 -3 13 -9 9 -26
-18 l-22 -35 0 28 c0 20 -7 30 -25 37 -15 6 -23 15 -19 23 7 18 -22 48 -40 41
-7 -3 -19 3 -27 12 -9 12 -10 15 -1 10 6 -4 12 -3 12 3 0 5 -8 12 -17 14 -10
3 -3 5 15 6 21 1 31 5 26 12 -3 6 -20 9 -36 7 -22 -4 -28 -1 -23 10 3 8 0 31
-6 51 -7 20 -14 42 -16 50 -3 11 -6 11 -21 -2 -12 -10 -24 -12 -40 -6 -23 9
-22 31 1 28 7 -1 21 0 32 1 16 1 14 4 -10 13 -37 15 -99 74 -83 79 18 6 1 37
-24 47 -13 5 -39 25 -57 45 -27 28 -32 39 -23 48 17 17 15 31 -3 24 -17 -6
-19 2 -16 56 2 27 -2 39 -17 47 -25 13 -38 61 -20 73 10 6 9 12 -7 24 -11 8
-20 19 -20 25 0 5 -7 14 -15 19 -13 9 -13 11 0 19 8 6 11 13 7 18 -5 4 -12 1
-16 -6 -5 -7 -14 -10 -20 -7 -13 9 -15 36 -2 36 9 0 6 28 -6 60 -4 8 -5 19 -4
24 1 5 -5 3 -14 -4 -8 -7 -18 -10 -22 -6 -3 3 -1 6 5 6 36 0 -12 149 -48 151
-10 0 -11 2 -2 6 6 2 12 14 12 24 0 11 5 17 10 14 15 -10 12 5 -6 22 -13 13
-13 17 -2 24 10 7 11 12 1 29 -7 11 -13 31 -13 44 0 28 -15 43 -23 24 -6 -14
-11 41 -7 80 1 14 -4 22 -15 22 -9 0 -14 4 -11 9 4 5 0 12 -6 14 -10 4 -10 8
0 15 19 13 6 162 -14 162 -18 0 -19 56 -2 63 10 4 10 7 0 15 -9 6 -11 18 -6
35 5 21 3 27 -11 27 -11 0 -15 -5 -11 -15 3 -8 1 -15 -5 -15 -7 0 -9 10 -5 25
l6 25 -4430 0 -4430 0 0 -5120z m9520 3450 c0 -5 -4 -10 -9 -10 -6 0 -13 5
-16 10 -3 6 1 10 9 10 9 0 16 -4 16 -10z m120 -110 c0 -5 -2 -10 -4 -10 -3 0
-8 5 -11 10 -3 6 -1 10 4 10 6 0 11 -4 11 -10z m-2501 -629 c35 -5 59 -15 68
-26 11 -16 13 -197 11 -1085 -2 -1100 -11 -1919 -17 -1700 -2 69 -6 112 -8 96
-3 -15 -16 -39 -30 -52 -14 -13 -22 -24 -17 -24 5 -1 -2 -7 -16 -15 -14 -7
-26 -18 -26 -24 -1 -6 -2 -15 -3 -21 0 -5 -8 -10 -16 -10 -8 0 -14 -3 -13 -7
3 -18 -23 -63 -37 -63 -8 0 -15 -6 -15 -14 0 -7 -9 -25 -21 -40 -11 -15 -24
-39 -28 -54 -4 -15 -13 -27 -20 -27 -11 0 -34 -33 -47 -68 -4 -9 -17 -20 -31
-23 -15 -4 -22 -12 -19 -20 3 -8 -1 -14 -9 -14 -8 0 -15 -9 -15 -20 0 -22 -16
-27 -23 -7 -2 6 -7 -3 -11 -21 -5 -22 -15 -34 -32 -38 -13 -3 -21 -10 -18 -15
3 -5 2 -9 -3 -9 -4 0 -27 -18 -50 -39 -23 -21 -44 -36 -47 -33 -3 3 -6 -4 -6
-16 0 -13 -6 -22 -15 -22 -8 0 -15 -4 -15 -10 0 -5 -7 -10 -15 -10 -8 0 -15
-4 -15 -10 0 -5 -9 -10 -19 -10 -15 0 -21 -8 -24 -32 -2 -18 -5 19 -5 82 -6
402 -18 708 -32 840 -6 52 -13 134 -16 181 -5 82 -6 86 -28 82 -15 -3 -22 -12
-22 -26 1 -12 -4 -21 -11 -20 -7 2 -15 -8 -19 -21 -3 -14 -13 -27 -22 -31 -14
-5 -14 -7 -2 -15 12 -7 12 -12 -3 -28 -9 -10 -14 -22 -10 -27 5 -4 1 -6 -7 -3
-16 5 -45 -49 -56 -107 -3 -19 -9 -33 -13 -31 -4 3 -16 -12 -26 -32 -11 -20
-22 -39 -25 -42 -4 -3 -13 -23 -21 -45 -9 -22 -21 -39 -27 -37 -7 1 -12 -3
-12 -8 0 -11 -2 -14 -50 -71 -16 -20 -30 -39 -30 -42 0 -21 -116 -114 -137
-109 -7 1 -9 -6 -6 -20 4 -18 3 -20 -6 -8 -6 8 -16 15 -23 15 -7 0 -15 15 -19
33 -4 18 -9 36 -13 39 -3 3 -565 5 -1248 5 -706 -1 -1258 2 -1278 7 l-35 9 40
2 c39 2 39 3 10 10 -16 4 -22 8 -12 9 10 0 15 6 12 11 -3 6 -1 10 5 10 18 0
70 59 70 80 0 12 7 20 18 20 14 0 12 4 -8 21 l-25 21 29 -7 c26 -6 28 -4 22
19 -6 24 6 40 29 41 6 0 9 15 8 33 -2 31 5 37 35 33 6 -1 12 6 12 16 0 10 12
26 28 35 23 15 24 18 7 18 -19 1 -19 1 3 19 12 11 22 25 22 31 0 17 41 52 55
46 6 -2 12 7 13 21 2 30 47 90 73 98 10 4 19 12 19 19 0 7 11 18 24 24 13 6
27 20 31 31 4 12 15 21 27 21 13 0 18 5 15 14 -3 8 1 17 9 20 9 4 14 -2 14
-17 l0 -21 16 22 c8 12 22 22 31 22 10 0 14 6 10 19 -3 13 3 22 21 31 15 6 32
20 40 31 7 10 20 19 28 19 8 0 14 7 14 15 0 8 9 15 21 15 11 0 17 5 14 10 -4
6 7 10 27 10 18 0 41 7 51 14 16 12 16 14 1 20 -8 3 -30 7 -47 8 -18 1 -5 4
28 8 35 4 -49 7 -200 9 -143 1 -433 4 -645 7 -212 3 -397 5 -411 4 -26 0 -26
1 -18 43 5 23 15 95 24 159 8 64 30 177 49 250 19 73 37 151 40 173 4 22 17
63 30 90 29 62 38 85 43 108 2 10 24 60 49 110 260 519 751 886 1337 998 127
24 206 31 407 38 290 10 2191 12 2259 2z m-3299 -2261 c0 -5 -5 -10 -11 -10
-5 0 -7 5 -4 10 3 6 8 10 11 10 2 0 4 -4 4 -10z m2630 -66 c0 -8 -5 -12 -10
-9 -6 4 -8 11 -5 16 9 14 15 11 15 -7z m-2315 -1176 c15 -37 30 -66 34 -65 4
1 20 -11 35 -28 15 -16 25 -24 21 -17 -5 9 0 11 19 6 44 -11 177 -10 173 1
-20 53 -11 47 26 -17 179 -307 431 -460 777 -469 l65 -2 -55 -7 c-64 -7 -51
-16 35 -24 52 -5 140 -36 155 -55 3 -4 18 -16 33 -28 l28 -21 -53 -6 c-29 -4
-80 -8 -113 -9 -33 -2 375 -3 908 -3 532 1 967 -2 967 -5 0 -7 -1050 -19
-1750 -21 -382 -1 -411 0 -510 21 -324 68 -586 263 -737 547 -53 102 -108 261
-128 371 -21 123 -18 124 15 3 15 -58 40 -135 55 -172z"/>
<path d="M5658 7810 c-361 -3 -659 -8 -662 -11 -4 -3 51 -7 121 -8 156 -2 163
-3 163 -14 0 -5 -11 -6 -25 -3 -14 4 -25 2 -25 -4 0 -5 5 -10 12 -10 9 0 9 -3
0 -12 -10 -10 -15 -10 -22 2 -15 24 -24 2 -10 -24 13 -26 43 -39 57 -26 4 5
19 2 33 -5 19 -11 21 -14 8 -15 -14 0 -17 -8 -15 -40 1 -27 6 -39 14 -35 7 2
15 0 19 -6 3 -6 12 -8 20 -5 8 3 14 1 14 -4 0 -6 6 -10 14 -10 8 0 17 -7 20
-16 4 -10 13 -13 26 -9 20 6 26 -8 21 -57 -1 -10 3 -18 8 -18 6 0 11 6 11 13
0 8 3 8 9 -2 6 -9 6 -24 0 -38 -11 -31 -11 -33 2 -33 5 0 7 5 4 10 -10 15 25
24 38 10 9 -10 9 -14 0 -17 -7 -3 -13 -9 -13 -15 0 -6 7 -8 15 -4 9 3 15 0 15
-10 0 -10 6 -14 15 -10 9 3 15 0 15 -9 0 -8 7 -15 15 -15 8 0 15 6 15 13 0 17
25 -33 34 -67 6 -25 5 -28 -13 -23 -11 3 -25 -1 -31 -8 -7 -8 -66 -14 -193
-19 -426 -17 -670 -75 -872 -207 -94 -61 -229 -197 -256 -258 -11 -25 -25 -48
-31 -52 -17 -11 -1 -79 17 -72 8 3 15 0 15 -7 0 -6 4 -9 9 -5 5 3 16 -2 25
-11 9 -8 20 -13 24 -10 5 3 20 -1 35 -9 15 -7 39 -12 54 -9 19 3 24 2 14 -5
-9 -6 -10 -14 -4 -26 9 -15 12 -13 23 14 7 17 17 34 21 37 5 3 -2 -21 -17 -53
-41 -92 -44 -102 -70 -213 -31 -132 -47 -476 -23 -491 8 -5 351 -9 776 -9 744
0 763 0 773 19 5 11 10 69 10 130 0 67 4 112 11 116 6 4 8 14 5 22 -3 8 -1 11
4 8 6 -3 10 -20 10 -36 0 -28 1 -29 16 -15 29 29 54 38 60 22 3 -8 12 -12 19
-10 7 3 18 -4 25 -15 6 -11 14 -20 18 -19 21 4 61 -16 70 -37 7 -15 23 -25 46
-29 20 -4 36 -12 36 -19 0 -8 3 -7 9 2 7 11 13 7 25 -18 13 -25 22 -30 41 -27
17 3 22 1 18 -10 -3 -8 10 -27 30 -45 21 -19 33 -37 30 -46 -4 -9 2 -16 16
-20 24 -6 42 -54 23 -61 -13 -4 -6 -22 9 -22 5 0 10 19 10 43 l1 42 8 -38 c9
-47 21 -61 19 -21 0 16 2 49 6 73 4 24 9 71 10 105 2 33 8 102 13 151 10 89
18 873 14 1423 l-2 282 -97 -2 c-54 -2 -394 -5 -755 -8z m-318 -196 c0 -8 -5
-12 -10 -9 -6 4 -8 11 -5 16 9 14 15 11 15 -7z"/>
<path d="M5460 7399 c0 -5 5 -7 10 -4 6 3 10 8 10 11 0 2 -4 4 -10 4 -5 0 -10
-5 -10 -11z"/>
<path d="M5505 7380 c-3 -5 -1 -10 4 -10 6 0 11 5 11 10 0 6 -2 10 -4 10 -3 0
-8 -4 -11 -10z"/>
<path d="M4236 5821 c-4 -5 3 -7 14 -4 23 6 26 13 6 13 -8 0 -17 -4 -20 -9z"/>
<path d="M5153 3723 c9 -2 23 -2 30 0 6 3 -1 5 -18 5 -16 0 -22 -2 -12 -5z"/>
<path d="M9200 9090 c0 -5 5 -10 11 -10 5 0 7 5 4 10 -3 6 -8 10 -11 10 -2 0
-4 -4 -4 -10z"/>
<path d="M9281 8984 c0 -11 3 -14 6 -6 3 7 2 16 -1 19 -3 4 -6 -2 -5 -13z"/>
<path d="M9917 8290 c-3 -11 -1 -20 4 -20 5 0 9 9 9 20 0 11 -2 20 -4 20 -2 0
-6 -9 -9 -20z"/>
<path d="M9970 8265 c0 -16 16 -20 24 -6 3 5 -1 11 -9 15 -9 3 -15 0 -15 -9z"/>
</g>
</svg>
